# xmcd
# Copyright (c) 1998 CDDB Inc.
#
# Track frame offsets:
#	150
#	20130
#	37825
#	58585
#	74355
#	92710
#	114162
#	133842
#	154997
#	181045
#	202170
#	224330
#
# Disc length: 3152 seconds
#
# Revision: 11
# Processed by: cddbd v1.5.2PL0 Copyright (c) Steve Scherf et al.
# Submitted via: AudioCatalyst 2.10full
#
DISCID=ab0c4e0c
DTITLE=Francis Cabrel - Hors-saison
DYEAR=1999
DGENRE=Chanson française
TTITLE0=Le monde est sourd
TTITLE1=Cent ans de plus
TTITLE2=Presque rien
TTITLE3=Le reste du temps
TTITLE4=Rien de nouveau
TTITLE5=Loin devant
TTITLE6=Depuis toujours
TTITLE7=Comme eux
TTITLE8=Hell Nep avenue
TTITLE9=Hors-saison
TTITLE10=Le belle Debbie
TTITLE11=Madame X
EXTD=Paroles et musiques Francis Cabrel sauf "Depuis tourours"  - "I've been lo
EXTD=v
EXTT0=
EXTT1=
EXTT2=
EXTT3=
EXTT4=
EXTT5=
EXTT6=
EXTT7=
EXTT8=
EXTT9=
EXTT10=
EXTT11=
PLAYORDER=
